<svg width="180" height="180" viewBox="0 0 180 180" fill="none" xmlns="http://www.w3.org/2000/svg">
<path d="M89 120V62" stroke="black" stroke-miterlimit="10"/>
<path d="M60 91H118" stroke="black" stroke-miterlimit="10"/>
<path d="M90 180C139.706 180 180 139.706 180 90C180 40.2944 139.706 0 90 0C40.2944 0 0 40.2944 0 90C0 139.706 40.2944 180 90 180Z" fill="white"/>
<path d="M110.909 38L108.508 37.2954L112.026 25.4295L105.919 23.6382L102.401 35.5031L100 34.7986L104.091 21L115 24.2004L110.909 38Z" fill="black"/>
<path d="M123.353 37.9611L118.258 35.0989L116.12 38.9279L122.075 42.2731L121.111 44L113 39.4431L119.948 27L128 31.5226L127.026 33.2661L121.13 29.9543L119.212 33.3896L124.308 36.2518L123.353 37.9611Z" fill="black"/>
<path d="M127.812 42.1383L124.674 46L123 44.4117L131.46 34L135.145 37.4972C136.119 38.3253 136.77 39.5178 136.971 40.8393C137.04 41.4364 136.986 42.0427 136.812 42.6144C136.638 43.1861 136.349 43.709 135.966 44.1453C135.625 44.6144 135.19 44.9934 134.693 45.2536C134.196 45.5138 133.651 45.6483 133.1 45.647C131.857 45.5518 130.687 44.9773 129.803 44.0282L127.812 42.1383ZM128.997 40.6795L131.009 42.5884C131.47 43.0912 132.087 43.3905 132.741 43.4278C133.04 43.4128 133.332 43.3276 133.597 43.178C133.863 43.0284 134.095 42.8181 134.277 42.5618C134.489 42.3239 134.654 42.0412 134.76 41.7314C134.867 41.4216 134.913 41.0913 134.896 40.7613C134.825 40.0707 134.506 39.4379 134.007 38.9998L131.949 37.047L128.997 40.6795Z" fill="black"/>
<path d="M141.512 55.6887L138.21 51.2865L134.892 53.7456L138.752 58.8917L137.256 60L132 52.9917L142.783 45L148 51.9568L146.489 53.0771L142.668 47.9825L139.691 50.1882L142.993 54.5913L141.512 55.6887Z" fill="black"/>
<path d="M154.469 63.9614L155.53 66.2199L141.803 72L140.742 69.7415L150.519 65.625L138.062 64.0386L137 61.7801L150.728 56L151.789 58.2585L142.003 62.3789L154.469 63.9614ZM158 62.5597C157.644 62.7242 157.253 62.8118 156.857 62.816C156.461 62.8203 156.068 62.741 155.708 62.5841C154.946 62.1795 154.342 61.5524 153.987 60.7966C153.632 60.0407 153.544 59.1963 153.737 58.3895C153.855 58.0312 154.056 57.7022 154.325 57.4263C154.593 57.1504 154.924 56.9345 155.291 56.7942L156.055 58.4187C155.873 58.4831 155.708 58.5821 155.568 58.7096C155.429 58.8372 155.319 58.9906 155.245 59.1602C155.185 59.3351 155.162 59.5197 155.177 59.7031C155.193 59.8866 155.247 60.0653 155.336 60.2289C155.404 60.4006 155.507 60.5577 155.641 60.6907C155.774 60.8238 155.934 60.9302 156.112 61.0035C156.294 61.0636 156.488 61.0877 156.681 61.0745C156.874 61.0612 157.062 61.0108 157.233 60.9263L158 62.5597Z" fill="black"/>
<path d="M156.948 83L156.076 78.4376L143.481 80.838L143 78.3148L155.595 75.9144L154.731 71.3919L156.783 71L159 82.6091L156.948 83Z" fill="black"/>
<path d="M158.654 95.6838L158.556 98L144 97.4823L144.098 95.1662L154.465 95.5345L144.346 89.3162L144.444 87L159 87.5167L158.902 89.833L148.524 89.4647L158.654 95.6838Z" fill="black"/>
<path d="M83.2423 146L85.8295 146.039L85.622 157.926L92.2043 158.024L92.4128 146.138L95 146.177L94.7576 160L83 159.824L83.2423 146Z" fill="black"/>
<path d="M70.8256 149.437L76.9167 150.739L77.955 146.454L70.835 144.933L71.3029 143L81 145.073L77.6249 159L68 156.943L68.4732 154.992L75.5211 156.497L76.4529 152.652L70.3618 151.351L70.8256 149.437Z" fill="black"/>
<path d="M65.2786 146.147L67.6305 141L70 142.122L63.658 156L58.4418 153.531C57.0929 152.979 55.9956 151.934 55.3658 150.601C55.1055 149.991 54.9814 149.33 55.0023 148.666C55.0232 148.001 55.1886 147.35 55.4867 146.759C55.7277 146.147 56.1021 145.599 56.5817 145.157C57.0612 144.714 57.6334 144.389 58.2548 144.204C59.6829 143.888 61.175 144.104 62.4598 144.813L65.2786 146.147ZM64.3903 148.092L61.5425 146.744C60.87 146.366 60.0837 146.257 59.3362 146.436C59.0043 146.552 58.7014 146.741 58.4486 146.989C58.1958 147.237 57.9992 147.538 57.8725 147.871C57.706 148.194 57.607 148.549 57.5817 148.913C57.5565 149.277 57.6056 149.643 57.7259 149.987C58.0162 150.695 58.5692 151.259 59.2649 151.555L62.1767 152.934L64.3903 148.092Z" fill="black"/>
<path d="M48.155 137.343L52.5424 140.665L55.0238 137.368L49.8954 133.486L51.0144 132L58 137.287L49.9341 148L43 142.751L44.1299 141.25L49.2078 145.093L51.4345 142.136L47.0472 138.815L48.155 137.343Z" fill="black"/>
<path d="M31 135.236C31.2588 134.986 31.5668 134.8 31.9016 134.691C32.2365 134.582 32.5898 134.554 32.9362 134.608C33.6883 134.792 34.3642 135.229 34.8633 135.854C35.3624 136.479 35.658 137.258 35.7061 138.075C35.6999 138.447 35.6159 138.812 35.4604 139.145C35.3049 139.478 35.0816 139.77 34.8068 140L33.7343 138.658C33.8714 138.549 33.9858 138.411 34.0703 138.253C34.1548 138.095 34.2076 137.92 34.2255 137.74C34.2311 137.558 34.2024 137.376 34.1413 137.206C34.0801 137.036 33.9876 136.88 33.8692 136.749C33.7667 136.603 33.6378 136.481 33.49 136.39C33.3422 136.299 33.1787 136.24 33.0091 136.218C32.8385 136.208 32.6679 136.236 32.5077 136.299C32.3476 136.363 32.2014 136.46 32.0779 136.585L31 135.236ZM33.6251 132.974L32.1344 131.108L42.2519 122L43.7426 123.866L36.5362 130.353L47.5084 128.579L49 130.445L38.8825 139.553L37.3909 137.687L44.6037 131.193L33.6251 132.974Z" fill="black"/>
<path d="M25.7956 116.57L27.8484 120.329L38.8643 115L40 117.078L28.9841 122.406L31.0201 126.132L29.2245 127L24 117.439L25.7956 116.57Z" fill="black"/>
<path d="M20.582 104.138L20 101.625L33.3654 98L33.9474 100.513L24.4289 103.095L35.418 106.861L36 109.374L22.6346 113L22.0526 110.486L31.5805 107.902L20.582 104.138Z" fill="black"/>
</svg>
