<svg width="167" height="45" viewBox="0 0 167 45" fill="none" xmlns="http://www.w3.org/2000/svg">
<g clip-path="url(#clip0)">
<path d="M44.9865 39.4232C44.5825 42.48 41.077 44.1222 40.7425 44.2779C39.745 44.781 38.6324 45.0119 37.5171 44.9475C36.6906 44.8712 35.8851 44.6443 35.1404 44.2779C34.2356 43.866 34.2407 43.6702 32.9335 42.9386C32.2155 42.4502 31.4077 42.1088 30.5569 41.9342C29.8735 41.8558 29.1813 41.9127 28.5198 42.1016C27.8051 42.2845 27.1195 42.5662 26.4827 42.9386C24.8292 43.8794 24.5168 44.7181 23.2572 44.9475C23.0083 44.9938 22.7546 45.0096 22.5018 44.9943H22.4984C22.2456 45.0096 21.9919 44.9938 21.743 44.9475C20.4833 44.7181 20.171 43.8795 18.5175 42.9386C17.8807 42.5662 17.1951 42.2845 16.4804 42.1016C15.8189 41.9127 15.1267 41.8558 14.4433 41.9342C13.5925 42.1088 12.7847 42.4502 12.0666 42.9386C10.7595 43.6702 10.7646 43.866 9.85974 44.2779C9.11504 44.6443 8.30954 44.8712 7.48309 44.9475C6.36775 45.0119 5.25516 44.781 4.25765 44.2779C3.92322 44.1222 0.417649 42.48 0.013649 39.4232C-0.0110601 39.033 -0.0110601 38.6416 0.013649 38.2514C0.049299 35.6215 0.011949 34.1903 0.013649 33.062C0.143828 27.9605 0.597432 22.8725 1.37173 17.8285C1.51992 16.7531 1.74687 15.69 2.05073 14.6478C3.55106 9.69874 6.81216 5.47059 11.2178 2.76233C14.6413 0.794085 18.5552 -0.156575 22.5001 0.0219695C26.445 -0.156575 30.3589 0.794085 33.7823 2.76233C38.188 5.47059 41.4491 9.69874 42.9494 14.6478C43.2533 15.69 43.4802 16.7531 43.6284 17.8285C44.4027 22.8725 44.8563 27.9605 44.9865 33.062C44.9882 34.1903 44.9492 35.6215 44.9865 38.2514C45.0112 38.6416 45.0112 39.033 44.9865 39.4232Z" fill="#EB060B"/>
<path d="M9.68966 27.5377C13.5337 27.5377 16.6498 23.6779 16.6498 18.9166C16.6498 14.1552 13.5337 10.2954 9.68966 10.2954C5.84567 10.2954 2.72949 14.1552 2.72949 18.9166C2.72949 23.6779 5.84567 27.5377 9.68966 27.5377Z" fill="white"/>
<path d="M28.5334 27.5377C32.3774 27.5377 35.4936 23.6779 35.4936 18.9166C35.4936 14.1552 32.3774 10.2954 28.5334 10.2954C24.6894 10.2954 21.5732 14.1552 21.5732 18.9166C21.5732 23.6779 24.6894 27.5377 28.5334 27.5377Z" fill="white"/>
<path d="M6.1247 23.6875C7.99982 23.6875 9.51991 22.0012 9.51991 19.921C9.51991 17.8408 7.99982 16.1544 6.1247 16.1544C4.24958 16.1544 2.72949 17.8408 2.72949 19.921C2.72949 22.0012 4.24958 23.6875 6.1247 23.6875Z" fill="#0F61A1"/>
<path d="M25.1379 23.6875C27.013 23.6875 28.5331 22.0012 28.5331 19.921C28.5331 17.8408 27.013 16.1544 25.1379 16.1544C23.2628 16.1544 21.7427 17.8408 21.7427 19.921C21.7427 22.0012 23.2628 23.6875 25.1379 23.6875Z" fill="#0F61A1"/>
<path d="M105.987 39.4232C105.583 42.48 102.077 44.1222 101.743 44.2779C100.745 44.781 99.6324 45.0119 98.5171 44.9475C97.6906 44.8712 96.8851 44.6443 96.1404 44.2779C95.2356 43.866 95.2407 43.6702 93.9335 42.9386C93.2155 42.4502 92.4077 42.1088 91.5569 41.9342C90.8735 41.8558 90.1813 41.9127 89.5198 42.1016C88.8051 42.2845 88.1195 42.5662 87.4827 42.9386C85.8292 43.8794 85.5168 44.7181 84.2572 44.9475C84.0083 44.9938 83.7546 45.0096 83.5018 44.9943H83.4984C83.2456 45.0096 82.9919 44.9938 82.743 44.9475C81.4833 44.7181 81.171 43.8795 79.5175 42.9386C78.8807 42.5662 78.1951 42.2845 77.4804 42.1016C76.8189 41.9127 76.1267 41.8558 75.4433 41.9342C74.5925 42.1088 73.7847 42.4502 73.0666 42.9386C71.7595 43.6702 71.7646 43.866 70.8597 44.2779C70.115 44.6443 69.3095 44.8712 68.4831 44.9475C67.3678 45.0119 66.2552 44.781 65.2576 44.2779C64.9232 44.1222 61.4176 42.48 61.0136 39.4232C60.9889 39.033 60.9889 38.6416 61.0136 38.2514C61.0493 35.6215 61.0119 34.1903 61.0136 33.062C61.1438 27.9605 61.5974 22.8725 62.3717 17.8285C62.5199 16.7531 62.7469 15.69 63.0507 14.6478C64.5511 9.69874 67.8122 5.47059 72.2178 2.76233C75.6413 0.794085 79.5552 -0.156575 83.5001 0.0219695C87.445 -0.156575 91.3589 0.794085 94.7823 2.76233C99.188 5.47059 102.449 9.69874 103.949 14.6478C104.253 15.69 104.48 16.7531 104.628 17.8285C105.403 22.8725 105.856 27.9605 105.986 33.062C105.988 34.1903 105.949 35.6215 105.986 38.2514C106.011 38.6416 106.011 39.033 105.987 39.4232Z" fill="#FC1DF7"/>
<path d="M70.6897 27.5377C74.5337 27.5377 77.6498 23.6779 77.6498 18.9166C77.6498 14.1552 74.5337 10.2954 70.6897 10.2954C66.8457 10.2954 63.7295 14.1552 63.7295 18.9166C63.7295 23.6779 66.8457 27.5377 70.6897 27.5377Z" fill="white"/>
<path d="M89.5334 27.5377C93.3774 27.5377 96.4936 23.6779 96.4936 18.9166C96.4936 14.1552 93.3774 10.2954 89.5334 10.2954C85.6894 10.2954 82.5732 14.1552 82.5732 18.9166C82.5732 23.6779 85.6894 27.5377 89.5334 27.5377Z" fill="white"/>
<path d="M67.1247 23.6875C68.9998 23.6875 70.5199 22.0012 70.5199 19.921C70.5199 17.8408 68.9998 16.1544 67.1247 16.1544C65.2496 16.1544 63.7295 17.8408 63.7295 19.921C63.7295 22.0012 65.2496 23.6875 67.1247 23.6875Z" fill="#0F61A1"/>
<path d="M86.1379 23.6875C88.013 23.6875 89.5331 22.0012 89.5331 19.921C89.5331 17.8408 88.013 16.1544 86.1379 16.1544C84.2628 16.1544 82.7427 17.8408 82.7427 19.921C82.7427 22.0012 84.2628 23.6875 86.1379 23.6875Z" fill="#0F61A1"/>
<path d="M166.987 39.4232C166.583 42.48 163.077 44.1222 162.743 44.2779C161.745 44.781 160.632 45.0119 159.517 44.9475C158.691 44.8712 157.885 44.6443 157.14 44.2779C156.236 43.866 156.241 43.6702 154.934 42.9386C154.215 42.4502 153.408 42.1088 152.557 41.9342C151.873 41.8558 151.181 41.9127 150.52 42.1016C149.805 42.2845 149.119 42.5662 148.483 42.9386C146.829 43.8794 146.517 44.7181 145.257 44.9475C145.008 44.9938 144.755 45.0096 144.502 44.9943H144.498C144.246 45.0096 143.992 44.9938 143.743 44.9475C142.483 44.7181 142.171 43.8795 140.518 42.9386C139.881 42.5662 139.195 42.2845 138.48 42.1016C137.819 41.9127 137.127 41.8558 136.443 41.9342C135.592 42.1088 134.785 42.4502 134.067 42.9386C132.759 43.6702 132.765 43.866 131.86 44.2779C131.115 44.6443 130.31 44.8712 129.483 44.9475C128.368 45.0119 127.255 44.781 126.258 44.2779C125.923 44.1222 122.418 42.48 122.014 39.4232C121.989 39.033 121.989 38.6416 122.014 38.2514C122.049 35.6215 122.012 34.1903 122.014 33.062C122.144 27.9605 122.597 22.8725 123.372 17.8285C123.52 16.7531 123.747 15.69 124.051 14.6478C125.551 9.69874 128.812 5.47059 133.218 2.76233C136.641 0.794082 140.555 -0.156578 144.5 0.0219704C148.445 -0.156574 152.359 0.794086 155.782 2.76233C160.188 5.47059 163.449 9.69874 164.949 14.6478C165.253 15.69 165.48 16.7531 165.628 17.8285C166.403 22.8725 166.856 27.9605 166.986 33.062C166.988 34.1903 166.949 35.6215 166.986 38.2514C167.011 38.6416 167.011 39.033 166.987 39.4232Z" fill="#00D9C1"/>
<path d="M131.69 27.5377C135.534 27.5377 138.65 23.6779 138.65 18.9166C138.65 14.1552 135.534 10.2954 131.69 10.2954C127.846 10.2954 124.729 14.1552 124.729 18.9166C124.729 23.6779 127.846 27.5377 131.69 27.5377Z" fill="white"/>
<path d="M150.533 27.5377C154.377 27.5377 157.494 23.6779 157.494 18.9166C157.494 14.1552 154.377 10.2954 150.533 10.2954C146.689 10.2954 143.573 14.1552 143.573 18.9166C143.573 23.6779 146.689 27.5377 150.533 27.5377Z" fill="white"/>
<path d="M128.125 23.6875C130 23.6875 131.52 22.0012 131.52 19.921C131.52 17.8408 130 16.1544 128.125 16.1544C126.25 16.1544 124.729 17.8408 124.729 19.921C124.729 22.0012 126.25 23.6875 128.125 23.6875Z" fill="#0F61A1"/>
<path d="M147.138 23.6875C149.013 23.6875 150.533 22.0012 150.533 19.921C150.533 17.8408 149.013 16.1544 147.138 16.1544C145.263 16.1544 143.743 17.8408 143.743 19.921C143.743 22.0012 145.263 23.6875 147.138 23.6875Z" fill="#0F61A1"/>
</g>
<defs>
<clipPath id="clip0">
<rect width="167" height="45" fill="white"/>
</clipPath>
</defs>
</svg>
