<svg width="265" height="265" viewBox="0 0 265 265" fill="none" xmlns="http://www.w3.org/2000/svg">
<path d="M132.5 265C205.678 265 265 205.678 265 132.5C265 59.3223 205.678 0 132.5 0C59.3223 0 0 59.3223 0 132.5C0 205.678 59.3223 265 132.5 265Z" fill="white"/>
<path d="M123.274 25.7415L126.523 25.6811L126.748 37.8137L126.86 37.8111C127.514 36.8283 128.169 35.92 128.788 35.0871L136.303 25.4995L140.335 25.4244L131.424 36.2701L141.512 50.5718L137.667 50.6431L129.15 38.4409L126.812 41.248L126.99 50.8419L123.742 50.9021L123.274 25.7415Z" fill="black"/>
<path d="M147.296 39.4281C147.708 37.34 148.024 35.5374 148.239 33.8674L151.059 34.422L150.485 37.9241L150.631 37.9533C151.906 35.7303 154.143 34.6103 156.305 35.0355C156.614 35.092 156.915 35.1895 157.199 35.3253L156.6 38.3664C156.255 38.217 155.893 38.1076 155.523 38.0402C153.251 37.5936 151.301 38.9982 150.385 41.3295C150.198 41.8075 150.05 42.3003 149.944 42.8028L148.083 52.2549L144.896 51.6278L147.296 39.4281Z" fill="black"/>
<path d="M173.414 55.7376C172.682 57.4552 172.072 58.9809 171.618 60.3301L168.939 59.1877L169.924 56.4009L169.856 56.3717C168.888 57.0886 167.747 57.5355 166.55 57.6669C165.353 57.7983 164.142 57.6093 163.042 57.1194C160.431 56.0059 157.921 53.2302 160.411 47.3911L164.556 37.6704L167.579 38.9593L163.654 48.1648C162.306 51.3251 162.359 53.8647 165.107 55.0364C165.974 55.3891 166.926 55.4778 167.844 55.2912C168.761 55.1046 169.603 54.6512 170.264 53.9878C170.658 53.5712 170.974 53.0875 171.197 52.5595L175.548 42.358L178.571 43.6469L173.414 55.7376Z" fill="black"/>
<path d="M199.986 58.5442C199.126 59.5302 198.174 60.6346 196.822 62.3745L190.385 70.6608C187.843 73.9339 185.637 75.4351 183.288 75.5974C180.895 75.8179 178.569 74.6736 176.77 73.2757C175.059 71.9473 173.493 70.0686 172.938 68.4087L175.122 66.9368C175.807 68.6706 176.954 70.1832 178.439 71.3099C181.093 73.3718 184.116 73.4975 186.91 69.8997L188.147 68.3076L188.088 68.2617C186.262 68.9702 183.903 68.8406 181.692 67.1226C178.153 64.3738 177.954 59.3959 181.023 55.4445C184.78 50.6084 190.065 50.3169 193.338 52.8594C195.816 54.7838 196.164 57.1351 195.867 58.7957L195.926 58.8413L197.716 56.7801L199.986 58.5442ZM192.928 62.092C193.252 61.7051 193.512 61.268 193.697 60.7979C194.093 59.8355 194.162 58.7692 193.891 57.7641C193.621 56.759 193.026 55.8711 192.2 55.2378C189.723 53.3137 186.327 54.033 183.762 57.3355C181.586 60.137 181.191 63.5663 183.993 65.7425C184.8 66.3622 185.783 66.7097 186.8 66.7349C187.817 66.7602 188.816 66.4619 189.652 65.883C190.141 65.5439 190.574 65.1303 190.935 64.6573L192.928 62.092Z" fill="black"/>
<path d="M206.169 94.8451C204.686 93.8484 203.442 92.5358 202.527 91.0015C199.632 86.3816 200.881 81.4124 205.564 78.4783C210.278 75.5246 215.717 76.6111 218.85 81.6112C219.697 82.9305 220.252 84.4159 220.477 85.9675L217.929 86.6828C217.825 85.3632 217.379 84.0934 216.635 82.9986C214.434 79.4863 210.65 79.2134 207.455 81.2154C203.911 83.436 203.156 87.0823 205.058 90.1201C205.794 91.305 206.785 92.3102 207.96 93.0618L206.169 94.8451Z" fill="black"/>
<path d="M221.405 111.563C215.078 113.713 210.83 110.266 209.425 106.13C207.852 101.499 210.032 96.7752 215.441 94.9374C221.168 92.9919 225.8 95.5981 227.409 100.335C229.079 105.249 226.637 109.785 221.405 111.563ZM216.616 98.0481C212.869 99.3212 210.773 102.438 211.806 105.479C212.815 108.448 216.364 109.726 220.218 108.417C223.117 107.432 226.301 104.734 225.052 101.057C223.803 97.3809 219.868 96.9429 216.616 98.0481Z" fill="black"/>
<path d="M226.639 118.152C228.502 118.018 230.026 117.871 231.508 117.652L231.717 120.557L228.75 120.958L228.756 121.032C229.853 121.547 230.788 122.351 231.461 123.358C232.134 124.366 232.519 125.538 232.574 126.748C232.753 129.243 231.542 133.224 225.36 133.668L214.597 134.442L214.36 131.165L224.752 130.418C227.656 130.209 229.999 128.954 229.777 125.863C229.69 124.87 229.286 123.931 228.626 123.183C227.966 122.436 227.084 121.919 226.109 121.709C225.604 121.587 225.083 121.549 224.566 121.596L213.728 122.376L213.492 119.098L226.639 118.152Z" fill="black"/>
<path d="M236.436 147.496L231.296 146.778L230.644 151.437L228.166 151.091L228.818 146.431L219.165 145.081C216.946 144.77 215.601 145.223 215.348 147.035C215.25 147.67 215.236 148.314 215.306 148.952L212.845 148.759C212.65 147.787 212.636 146.788 212.804 145.812C213.016 144.296 213.668 143.143 214.664 142.49C215.755 141.7 217.391 141.59 219.5 141.884L229.263 143.25L229.651 140.477L232.128 140.823L231.74 143.597L236.03 144.197L236.436 147.496Z" fill="black"/>
<path d="M219.234 157.642C215.014 156.246 212.351 158.322 211.267 161.424C210.65 163.026 210.388 164.743 210.498 166.456L208.092 166.209C207.972 164.151 208.287 162.091 209.017 160.164C210.853 154.912 215.404 152.981 220.55 154.779C225.697 156.577 228.691 161.025 226.955 165.996C225.009 171.565 219.592 171.334 216.454 170.238C215.973 170.064 215.502 169.86 215.046 169.627L219.234 157.642ZM218.277 167.513C220.239 168.237 223.601 168.463 224.821 164.973C225.917 161.836 223.506 159.451 221.443 158.453L218.277 167.513Z" fill="black"/>
<path d="M215.968 178.313C217.528 179.339 218.828 180.149 220.137 180.877L218.537 183.31L215.937 181.825L215.897 181.887C216.455 182.962 216.708 184.17 216.63 185.378C216.551 186.587 216.144 187.752 215.452 188.746C214.077 190.836 210.695 193.26 205.516 189.853L196.5 183.922L198.306 181.177L207.01 186.902C209.444 188.503 212.067 188.932 213.77 186.343C214.304 185.501 214.555 184.51 214.486 183.515C214.416 182.52 214.03 181.574 213.384 180.814C213.057 180.41 212.667 180.063 212.228 179.786L203.149 173.814L204.955 171.069L215.968 178.313Z" fill="black"/>
<path d="M205.946 207.549L202.295 203.86L198.951 207.169L197.191 205.39L200.536 202.081L193.681 195.153C192.105 193.561 190.761 193.105 189.46 194.391C188.998 194.836 188.595 195.34 188.264 195.89L186.425 194.243C186.859 193.353 187.454 192.551 188.18 191.877C189.268 190.8 190.485 190.278 191.673 190.363C193.02 190.397 194.388 191.302 195.885 192.815L202.819 199.823L204.809 197.853L206.569 199.632L204.578 201.601L207.624 204.68L205.946 207.549Z" fill="black"/>
<path d="M157.65 210.35L158.691 212.392L158.796 212.353C159.099 211.328 159.641 210.39 160.378 209.616C161.115 208.842 162.025 208.255 163.034 207.903C166.462 206.624 169.112 208.385 170.026 210.834C171.552 214.927 168.749 218.523 162.195 220.929L162.325 221.279C162.847 222.678 164.171 225.053 167.635 223.761C169.19 223.175 170.553 222.17 171.573 220.858L173.029 222.626C171.729 224.261 169.996 225.501 168.028 226.205C162.851 228.136 160.274 225.073 159.007 221.679L156.645 215.347C156.161 213.981 155.561 212.658 154.852 211.394L157.65 210.35ZM161.328 218.821C164.713 217.638 168.304 215.62 167.078 212.332C166.334 210.339 164.652 209.89 163.078 210.477C162.174 210.787 161.393 211.377 160.847 212.161C160.301 212.945 160.019 213.882 160.042 214.838C160.05 215.194 160.115 215.546 160.232 215.882L161.328 218.821Z" fill="black"/>
<path d="M136.07 232.564C135.994 231.257 135.901 229.802 135.648 227.613L134.442 217.191C133.965 213.074 134.49 210.458 136.053 208.698C137.607 206.865 140.069 206.054 142.332 205.792C144.483 205.543 146.917 205.787 148.475 206.585L147.946 209.164C146.244 208.406 144.366 208.129 142.517 208.364C139.179 208.75 136.932 210.777 137.456 215.301L137.688 217.305L137.762 217.296C138.57 215.511 140.344 213.952 143.126 213.63C147.576 213.116 151.204 216.53 151.779 221.5C152.483 227.583 148.914 231.491 144.797 231.968C141.681 232.328 139.786 230.894 138.835 229.5L138.762 229.509L138.926 232.233L136.07 232.564ZM138.626 225.089C138.665 225.593 138.786 226.086 138.983 226.551C139.374 227.516 140.071 228.325 140.968 228.853C141.865 229.381 142.911 229.599 143.944 229.473C147.06 229.112 148.98 226.222 148.5 222.068C148.092 218.544 145.973 215.82 142.449 216.227C141.439 216.35 140.494 216.79 139.751 217.484C139.007 218.178 138.502 219.09 138.31 220.089C138.199 220.673 138.18 221.272 138.252 221.862L138.626 225.089Z" fill="black"/>
<path d="M125.236 222.522C125.756 218.109 123.189 215.916 119.933 215.476C118.24 215.193 116.506 215.28 114.85 215.732L114.61 213.326C116.601 212.795 118.683 212.69 120.717 213.02C126.23 213.765 129.033 217.836 128.304 223.238C127.574 228.64 123.818 232.465 118.6 231.761C112.754 230.971 111.895 225.618 112.339 222.325C112.413 221.818 112.519 221.316 112.655 220.823L125.236 222.522ZM115.375 223.564C115.058 225.631 115.511 228.97 119.174 229.465C122.467 229.909 124.32 227.07 124.884 224.848L115.375 223.564Z" fill="black"/>
<path d="M104.316 223.456C103.621 225.19 103.086 226.624 102.634 228.052L99.9305 226.969L100.869 224.126L100.8 224.098C99.8569 224.859 98.7242 225.348 97.5239 225.512C96.3236 225.676 95.1014 225.509 93.9892 225.028C91.6675 224.097 88.6186 221.265 90.9255 215.512L94.9422 205.495L97.9924 206.719L94.1145 216.389C93.0306 219.092 93.1324 221.748 96.0091 222.901C96.9406 223.258 97.9616 223.306 98.9226 223.04C99.8837 222.774 100.734 222.207 101.35 221.422C101.681 221.022 101.944 220.57 102.128 220.084L106.172 209.998L109.222 211.222L104.316 223.456Z" fill="black"/>
<path d="M78.9407 195.545C80.6926 195.895 82.3456 196.627 83.7811 197.691C88.231 200.839 88.9908 205.906 85.7988 210.416C82.585 214.958 77.147 216.049 72.3313 212.641C71.0416 211.75 69.9576 210.593 69.1523 209.248L71.2283 207.607C71.8327 208.784 72.7331 209.784 73.841 210.508C77.224 212.902 80.8218 211.697 83 208.619C85.4156 205.205 84.7093 201.549 81.7839 199.479C80.6494 198.668 79.3478 198.122 77.9747 197.881L78.9407 195.545Z" fill="black"/>
<path d="M61.2854 202.607L66.6108 192.54C67.228 191.438 67.9874 190.158 68.5955 189.214L68.5459 189.159C67.5146 189.63 66.2355 190.271 64.9628 190.808L54.6674 195.202L52.3535 192.612L65.243 187.704C71.4321 185.328 74.8682 184.41 77.8084 184.787C79.3469 184.937 80.82 185.484 82.0829 186.375L80.5698 188.83C79.6103 188.276 78.5536 187.911 77.4569 187.755C75.9251 187.524 74.3605 187.654 72.8874 188.133C72.6171 188.197 72.3602 188.308 72.1285 188.461C71.9277 188.68 71.762 188.93 71.6374 189.2L63.6737 205.28L61.2854 202.607Z" fill="black"/>
</svg>
