<svg width="180" height="180" viewBox="0 0 180 180" fill="none" xmlns="http://www.w3.org/2000/svg">
<path d="M90 180C139.706 180 180 139.706 180 90C180 40.2944 139.706 0 90 0C40.2944 0 0 40.2944 0 90C0 139.706 40.2944 180 90 180Z" fill="white"/>
<path d="M100.348 22.086L93.8311 21.3985L93.4698 24.8282L96.3634 25.1329C97.297 25.2099 98.2025 25.4899 99.0167 25.9532C99.7081 26.3459 100.265 26.9381 100.614 27.6524C100.952 28.3823 101.078 29.1925 100.977 29.9904C100.937 30.5899 100.766 31.1734 100.476 31.6993C100.185 32.2253 99.7825 32.6807 99.296 33.0333C98.1784 33.7738 96.8255 34.0725 95.5 33.8713L90.0908 33.2991L91.583 19.1604L100.557 20.1057L100.348 22.086ZM93.2608 26.8086L92.755 31.5977L95.6397 31.9024C95.9889 31.9601 96.346 31.9482 96.6906 31.8674C97.0352 31.7867 97.3604 31.6386 97.6476 31.4317C97.9061 31.2231 98.1182 30.9628 98.2704 30.6675C98.4226 30.3722 98.5115 30.0484 98.5313 29.7168C98.5798 29.405 98.5601 29.0863 98.4734 28.7828C98.3867 28.4793 98.2352 28.1982 98.0294 27.959C97.5489 27.4639 96.9014 27.1652 96.213 27.1211L93.2608 26.8086Z" fill="black"/>
<path d="M114.786 31.9863C114.406 33.1883 113.769 34.2937 112.921 35.2266C112.191 36.0285 111.239 36.5949 110.186 36.8535C109.123 37.0752 108.02 37.0077 106.992 36.658C105.965 36.3083 105.05 35.6891 104.343 34.8652C103.661 34.0207 103.243 32.9944 103.14 31.9141C103.02 30.6781 103.175 29.431 103.593 28.2617L103.851 27.5039C104.233 26.3001 104.875 25.1947 105.731 24.2656C106.466 23.4597 107.425 22.8901 108.485 22.6289C109.544 22.3848 110.651 22.4512 111.674 22.8203C112.708 23.1509 113.626 23.7687 114.322 24.6016C115.001 25.4437 115.415 26.4678 115.513 27.5449C115.626 28.7957 115.465 30.0561 115.041 31.2383L114.786 31.9863ZM112.687 30.4883C113.172 29.3108 113.283 28.0127 113.007 26.7696C112.855 26.3053 112.597 25.8827 112.254 25.5351C111.91 25.1875 111.491 24.9245 111.028 24.7667C110.566 24.609 110.073 24.5608 109.589 24.626C109.105 24.6913 108.643 24.8681 108.238 25.1426C107.267 25.9328 106.563 27.0027 106.221 28.2071L105.957 28.9844C105.474 30.1641 105.368 31.4647 105.654 32.7071C105.787 33.1853 106.039 33.6221 106.387 33.9766C106.734 34.3312 107.166 34.5919 107.642 34.7344C108.101 34.9144 108.598 34.9747 109.086 34.9098C109.575 34.8449 110.039 34.6568 110.435 34.3633C111.413 33.5356 112.115 32.429 112.447 31.1914L112.687 30.4883Z" fill="black"/>
<path d="M130.852 32.8398L123.323 44.9003L121.236 43.5976L127.71 33.2265L124.016 30.9179L120.889 35.4491C120.14 36.5783 119.249 37.6063 118.237 38.5077C117.601 39.0805 116.8 39.4368 115.949 39.5253C115.08 39.5362 114.229 39.2747 113.516 38.7773L112.985 38.4453L114.029 36.7734L114.377 36.9551C114.811 37.2014 115.324 37.2694 115.807 37.1445C116.354 36.9491 116.844 36.6201 117.232 36.1875C117.939 35.4272 118.582 34.6107 119.155 33.7461L123.074 27.9844L130.852 32.8398Z" fill="black"/>
<path d="M132.889 41.7929L134.956 43.8437C135.636 44.4876 136.167 45.2721 136.513 46.1425C136.806 46.8819 136.87 47.6924 136.696 48.4687C136.503 49.2485 136.095 49.9584 135.518 50.5175C135.112 50.9608 134.613 51.3091 134.057 51.5376C133.501 51.7662 132.902 51.8693 132.302 51.8398C130.967 51.7201 129.725 51.1073 128.817 50.121L124.954 46.291L134.963 36.1914L136.718 37.9297L132.889 41.7929ZM131.486 43.2089L128.098 46.6289L130.157 48.6719C130.393 48.9356 130.679 49.15 130.998 49.3025C131.318 49.455 131.664 49.5427 132.018 49.5605C132.35 49.5587 132.678 49.488 132.981 49.3528C133.284 49.2177 133.556 49.0211 133.779 48.7754C134.012 48.5625 134.197 48.3015 134.319 48.0105C134.441 47.7195 134.499 47.4053 134.488 47.0898C134.423 46.4025 134.105 45.7641 133.595 45.2988L131.486 43.2089Z" fill="black"/>
<path d="M147.022 49.5585L136.426 55.6953L138.599 59.4473L149.195 53.3125L150.429 55.4414L139.831 61.5781L141.989 65.3047L152.587 59.168L153.82 61.2969L141.516 68.4219L133.476 54.5371L145.78 47.4121L147.022 49.5585Z" fill="black"/>
<path d="M150.191 76.8067L148.636 71.1778L144.419 72.3438L146.237 78.9219L144.336 79.4492L141.858 70.4883L155.563 66.6992L158.022 75.5938L156.102 76.125L154.302 69.6113L150.517 70.6563L152.074 76.2852L150.191 76.8067Z" fill="black"/>
<path d="M151.58 96.9024C150.32 96.8991 149.075 96.6233 147.932 96.0938C146.948 95.6368 146.122 94.8978 145.56 93.9707C145.029 93.0236 144.762 91.9512 144.788 90.8657C144.814 89.7802 145.131 88.7216 145.706 87.8007C146.307 86.8971 147.162 86.1906 148.162 85.7695C149.305 85.285 150.541 85.0583 151.782 85.1055L152.583 85.125C153.846 85.1313 155.093 85.4126 156.236 85.9492C157.224 86.4119 158.054 87.155 158.622 88.086C159.151 89.0319 159.417 90.1021 159.393 91.1856C159.37 92.2691 159.056 93.3265 158.486 94.2481C157.886 95.1475 157.033 95.8494 156.035 96.2657C154.876 96.7478 153.626 96.9717 152.371 96.922L151.58 96.9024ZM152.381 94.4492C153.649 94.561 154.921 94.2793 156.024 93.6426C156.422 93.3585 156.748 92.9859 156.977 92.5542C157.206 92.1225 157.331 91.6435 157.343 91.155C157.355 90.6665 157.254 90.1819 157.046 89.7394C156.839 89.297 156.531 88.9088 156.148 88.6055C155.104 87.9166 153.873 87.5648 152.622 87.5977L151.802 87.5782C150.531 87.471 149.258 87.7603 148.158 88.4063C147.742 88.6765 147.4 89.0479 147.166 89.4858C146.932 89.9236 146.813 90.4137 146.819 90.9102C146.785 91.4014 146.876 91.8933 147.084 92.3396C147.292 92.7858 147.61 93.1718 148.009 93.461C149.092 94.1467 150.358 94.486 151.639 94.4336L152.381 94.4492Z" fill="black"/>
<path d="M139.872 113.615L140.698 111.297L146.641 113.416L148.775 107.428L142.833 105.309L143.663 102.98L157.056 107.758L156.226 110.084L150.652 108.098L148.517 114.086L154.091 116.072L153.265 118.391L139.872 113.615Z" fill="black"/>
<path d="M137.221 124.148L140.228 119.535L138.084 116.762L139.486 114.609L148.465 126.875L147.255 128.73L132.404 125.475L133.812 123.316L137.221 124.148ZM141.519 121.203L139.269 124.656L145.335 126.15L141.519 121.203Z" fill="black"/>
<path d="M127.37 136.797C126.466 135.78 126.002 134.446 126.081 133.088C126.238 131.683 126.91 130.387 127.968 129.449C128.704 128.694 129.64 128.166 130.667 127.926C131.678 127.704 132.732 127.786 133.697 128.16C134.805 128.59 135.807 129.253 136.635 130.105L137.565 131.053C138.438 131.905 139.113 132.94 139.541 134.082C139.915 135.079 139.983 136.165 139.738 137.201C139.472 138.254 138.911 139.208 138.121 139.953C137.183 140.965 135.9 141.588 134.525 141.699C133.15 141.728 131.818 141.224 130.806 140.293L132.56 138.57C133.156 139.133 133.93 139.47 134.748 139.521C135.51 139.46 136.219 139.105 136.725 138.531C137.083 138.214 137.357 137.812 137.521 137.363C137.685 136.914 137.735 136.43 137.666 135.957C137.402 134.768 136.777 133.69 135.875 132.871L134.991 131.973C134.186 131.041 133.124 130.369 131.937 130.039C131.473 129.942 130.992 129.968 130.541 130.114C130.089 130.259 129.684 130.519 129.363 130.869C128.762 131.377 128.37 132.089 128.262 132.869C128.277 133.683 128.583 134.465 129.126 135.072L127.37 136.797Z" fill="black"/>
<path d="M77.5997 156.904L84.1154 157.598L84.4806 154.168L81.5861 153.861C80.6528 153.783 79.7478 153.502 78.9337 153.039C78.2421 152.645 77.6856 152.051 77.337 151.336C77 150.607 76.8752 149.797 76.9767 149C77.0168 148.401 77.1885 147.817 77.4794 147.292C77.7704 146.766 78.1736 146.311 78.6603 145.959C79.7777 145.218 81.1312 144.921 82.4562 145.125L87.8654 145.699L86.3624 159.84L77.3888 158.885L77.5997 156.904ZM84.6905 152.187L85.2003 147.4L82.3155 147.094C81.9664 147.035 81.609 147.046 81.2641 147.126C80.9192 147.207 80.5938 147.355 80.3068 147.562C80.0481 147.771 79.8358 148.031 79.6834 148.325C79.5311 148.62 79.442 148.944 79.422 149.275C79.3735 149.588 79.3931 149.906 79.4796 150.21C79.5661 150.514 79.7174 150.795 79.923 151.035C80.4033 151.53 81.0502 151.829 81.7384 151.875L84.6905 152.187Z" fill="black"/>
<path d="M63.214 147.014C63.5947 145.812 64.231 144.706 65.0792 143.773C65.8092 142.971 66.7614 142.405 67.8146 142.146C68.8773 141.925 69.98 141.992 71.0077 142.342C72.0354 142.692 72.9505 143.311 73.6573 144.135C74.339 144.979 74.7573 146.005 74.8605 147.086C74.9799 148.322 74.8252 149.569 74.4073 150.738L74.1495 151.496C73.767 152.7 73.1253 153.805 72.2696 154.734C71.5337 155.54 70.5753 156.11 69.5156 156.371C68.4562 156.615 67.3489 156.549 66.3262 156.18C65.2923 155.849 64.3738 155.231 63.6778 154.398C62.9992 153.556 62.585 152.532 62.4873 151.455C62.3741 150.204 62.535 148.944 62.959 147.762L63.214 147.014ZM65.3136 148.512C64.8285 149.689 64.7167 150.987 64.9933 152.23C65.1454 152.695 65.4033 153.117 65.7466 153.465C66.0899 153.812 66.5094 154.075 66.9718 154.233C67.4342 154.391 67.9269 154.439 68.4111 154.374C68.8953 154.309 69.3577 154.132 69.7618 153.857C70.733 153.067 71.4374 151.997 71.7794 150.793L72.0431 150.016C72.5265 148.836 72.6323 147.535 72.3458 146.293C72.2128 145.815 71.9607 145.378 71.6132 145.023C71.2657 144.669 70.834 144.408 70.3585 144.266C69.8997 144.086 69.4026 144.025 68.9141 144.09C68.4255 144.155 67.9615 144.343 67.5655 144.637C66.5873 145.464 65.8851 146.571 65.5528 147.808L65.3136 148.512Z" fill="black"/>
<path d="M47.1475 146.16L54.6768 134.1L56.7637 135.402L50.29 145.773L53.9844 148.082L57.1113 143.551C57.8601 142.422 58.7512 141.394 59.7627 140.492C60.3985 139.919 61.1996 139.563 62.0507 139.475C62.9201 139.464 63.7711 139.725 64.4843 140.223L65.0146 140.555L63.9706 142.227L63.6229 142.045C63.189 141.798 62.6763 141.731 62.1932 141.855C61.6457 142.051 61.1557 142.38 60.7674 142.812C60.0613 143.573 59.4182 144.389 58.8446 145.254L54.9256 151.016L47.1475 146.16Z" fill="black"/>
<path d="M45.0744 137.172L43.0089 135.123C42.3296 134.478 41.7988 133.693 41.4533 132.822C41.1607 132.083 41.0978 131.272 41.2726 130.496C41.4659 129.716 41.8747 129.006 42.4523 128.447C42.8584 128.004 43.3573 127.656 43.9133 127.428C44.4693 127.2 45.0688 127.097 45.6691 127.127C47.0044 127.248 48.2466 127.863 49.1525 128.852L53.0128 132.684L42.9962 142.773L41.2422 141.033L45.0744 137.172ZM46.4777 135.758L49.8693 132.342L47.8107 130.299C47.5751 130.035 47.2895 129.82 46.9703 129.666C46.6512 129.513 46.3048 129.425 45.9513 129.406C45.619 129.407 45.2906 129.478 44.9871 129.613C44.6836 129.748 44.4116 129.945 44.1886 130.191C43.9558 130.404 43.7719 130.665 43.6495 130.956C43.5271 131.246 43.4692 131.56 43.4796 131.875C43.5437 132.563 43.8616 133.202 44.3712 133.668L46.4777 135.758Z" fill="black"/>
<path d="M30.9775 129.441L41.5742 123.305L39.4014 119.553L28.8047 125.687L27.5713 123.558L38.1689 117.422L36.0107 113.695L25.4131 119.832L24.1797 117.703L36.4844 110.578L44.5244 124.463L32.2197 131.588L30.9775 129.441Z" fill="black"/>
<path d="M27.7978 102.146L29.3496 107.777L33.5674 106.613L31.7539 100.033L33.6552 99.5079L36.1259 108.473L22.418 112.25L19.9658 103.353L21.8867 102.824L23.6826 109.34L27.4668 108.297L25.915 102.666L27.7978 102.146Z" fill="black"/>
<path d="M26.42 82.0977C27.6802 82.1009 28.9248 82.3768 30.0684 82.9063C31.052 83.3633 31.8776 84.1022 32.4404 85.0293C32.9713 85.9764 33.2379 87.0489 33.2121 88.1344C33.1863 89.2198 32.8692 90.2784 32.2939 91.1993C31.6926 92.103 30.8384 92.8095 29.8379 93.2306C28.6946 93.7151 27.4586 93.9418 26.2178 93.8946L25.417 93.875C24.1539 93.8687 22.9072 93.5874 21.7637 93.0508C20.7759 92.5882 19.9462 91.845 19.378 90.914C18.849 89.9681 18.5826 88.898 18.6065 87.8145C18.6303 86.731 18.9436 85.6736 19.5137 84.7519C20.1141 83.8525 20.9669 83.1506 21.9649 82.7343C23.1241 82.2523 24.3744 82.0284 25.6289 82.0781L26.42 82.0977ZM25.6192 84.5508C24.3507 84.4391 23.0785 84.7207 21.9756 85.3574C21.578 85.6415 21.2519 86.0141 21.023 86.4458C20.7941 86.8775 20.6687 87.3565 20.6567 87.845C20.6447 88.3335 20.7464 88.8182 20.9537 89.2606C21.1611 89.7031 21.4685 90.0913 21.8516 90.3946C22.8962 91.0835 24.1271 91.4353 25.378 91.4024L26.1983 91.4219C27.4692 91.5291 28.7421 91.2398 29.8419 90.5938C30.2585 90.3236 30.5998 89.9521 30.8339 89.5142C31.068 89.0764 31.1874 88.5863 31.1807 88.0898C31.2154 87.5986 31.1243 87.1067 30.9162 86.6604C30.7081 86.2141 30.3898 85.8282 29.9913 85.539C28.9083 84.8533 27.6421 84.514 26.3613 84.5663L25.6192 84.5508Z" fill="black"/>
<path d="M38.1474 65.3477L37.3193 67.6641L31.3789 65.541L29.2392 71.5273L35.1797 73.6523L34.3477 75.9766L20.959 71.1914L21.79 68.8652L27.3633 70.8574L29.5029 64.8711L23.9307 62.8789L24.7588 60.5625L38.1474 65.3477Z" fill="black"/>
<path d="M40.7793 54.8516L37.7725 59.4648L39.916 62.2383L38.5137 64.3906L29.5352 52.125L30.7451 50.2695L45.5957 53.5254L44.1875 55.6836L40.7793 54.8516ZM36.4814 57.7969L38.7314 54.3438L32.665 52.8496L36.4814 57.7969Z" fill="black"/>
<path d="M50.63 42.2031C51.5344 43.2197 51.9981 44.5538 51.9191 45.9121C51.7619 47.3166 51.0897 48.613 50.0324 49.5508C49.2962 50.3055 48.3597 50.8341 47.3331 51.0742C46.322 51.2956 45.268 51.214 44.3029 50.8399C43.1951 50.4104 42.1931 49.7469 41.3654 48.8946L40.4347 47.9473C39.5619 47.0947 38.8874 46.0605 38.4591 44.918C38.0853 43.9209 38.0167 42.8351 38.2619 41.7989C38.5284 40.7465 39.0894 39.7918 39.879 39.0469C40.8169 38.0354 42.0999 37.4124 43.4747 37.3008C44.8497 37.2721 46.1825 37.776 47.1945 38.7071L45.4396 40.4297C44.8439 39.8669 44.07 39.5304 43.2521 39.4786C42.4896 39.5402 41.7806 39.8952 41.2745 40.4688C40.9165 40.7862 40.6431 41.1877 40.479 41.6371C40.3148 42.0864 40.265 42.5696 40.3341 43.043C40.5976 44.2322 41.2234 45.3103 42.1251 46.129L43.0089 47.0275C43.8141 47.9588 44.8765 48.6315 46.0626 48.9611C46.5269 49.0575 47.0082 49.0317 47.4594 48.8862C47.9107 48.7407 48.3164 48.4805 48.6369 48.1311C49.2381 47.6231 49.6305 46.9108 49.7384 46.1311C49.7232 45.3169 49.4166 44.5353 48.8742 43.9279L50.63 42.2031Z" fill="black"/>
</svg>
