<svg width="180" height="180" viewBox="0 0 180 180" fill="none" xmlns="http://www.w3.org/2000/svg">
<path d="M90 180C139.706 180 180 139.706 180 90C180 40.2944 139.706 0 90 0C40.2944 0 0 40.2944 0 90C0 139.706 40.2944 180 90 180Z" fill="white"/>
<path d="M101.279 34.5609L98.8347 34.268L100.291 22.1274L94.0759 21.3814L92.6199 33.522L90.1765 33.229L91.8699 19.1118L102.971 20.4418L101.279 34.5609Z" fill="black"/>
<path d="M116.363 32.7132C115.949 33.9045 115.283 34.992 114.408 35.9007C113.656 36.6819 112.689 37.2217 111.629 37.4515C110.561 37.6441 109.46 37.5463 108.442 37.1684C107.425 36.7905 106.527 36.1463 105.843 35.3031C105.185 34.4396 104.795 33.4018 104.722 32.3187C104.637 31.0804 104.826 29.8386 105.277 28.682L105.555 27.93C105.971 26.7372 106.644 25.6499 107.525 24.7444C108.283 23.96 109.256 23.4176 110.323 23.1858C111.388 22.9699 112.493 23.0669 113.505 23.4651C114.53 23.8245 115.431 24.4681 116.103 25.3206C116.758 26.181 117.144 27.216 117.212 28.2952C117.29 29.5483 117.094 30.8033 116.638 31.973L116.363 32.7132ZM114.305 31.1585C114.822 29.9953 114.97 28.7013 114.728 27.4515C114.589 26.983 114.343 26.5534 114.009 26.1963C113.676 25.8393 113.264 25.5647 112.806 25.3943C112.348 25.2238 111.856 25.1621 111.371 25.214C110.885 25.266 110.418 25.4302 110.006 25.6936C109.014 26.4551 108.28 27.5041 107.906 28.6976L107.619 29.4672C107.104 30.6338 106.962 31.9316 107.214 33.182C107.351 33.6535 107.595 34.0867 107.928 34.4474C108.261 34.808 108.674 35.0861 109.133 35.2597C109.592 35.4333 110.086 35.4976 110.574 35.4475C111.062 35.3974 111.532 35.2343 111.947 34.9711C112.947 34.1696 113.679 33.0822 114.046 31.8539L114.305 31.1585Z" fill="black"/>
<path d="M127.11 41.9867C126.713 42.5311 126.212 42.9917 125.636 43.3423C125.061 43.6928 124.422 43.9264 123.756 44.0297C122.349 44.1701 120.941 43.7862 119.801 42.9516C118.908 42.3901 118.194 41.5859 117.743 40.6332C117.315 39.6908 117.173 38.6438 117.334 37.6215C117.522 36.4477 117.96 35.328 118.618 34.3383L119.348 33.2289C119.998 32.1969 120.866 31.3206 121.892 30.6625C122.789 30.0867 123.836 29.7903 124.901 29.8109C125.986 29.8508 127.036 30.1983 127.931 30.8129C129.118 31.5154 129.998 32.6385 130.395 33.9594C130.714 35.2976 130.503 36.7072 129.806 37.893L127.751 36.5395C128.175 35.8388 128.341 35.0118 128.221 34.2016C127.999 33.4694 127.503 32.8513 126.836 32.477C126.45 32.1934 126 32.0105 125.526 31.9447C125.051 31.8788 124.568 31.9322 124.12 32.1C123.014 32.608 122.093 33.4459 121.482 34.4985L120.789 35.5532C120.048 36.5367 119.615 37.7169 119.543 38.9458C119.546 39.4198 119.673 39.8847 119.91 40.2952C120.147 40.7056 120.487 41.0475 120.895 41.2876C121.519 41.7681 122.298 42.0018 123.083 41.9439C123.875 41.7573 124.575 41.2931 125.054 40.6353L127.11 41.9867Z" fill="black"/>
<path d="M138.4 39.4242L133.055 49.7699L143.888 45.5062L146.028 47.8773L135.47 57.4027L133.822 55.5765L137.302 52.4359L142.12 48.4164L131.172 52.639L129.988 51.3265L135.31 40.8832L130.825 45.2562L127.345 48.3969L125.697 46.5687L136.254 37.0453L138.4 39.4242Z" fill="black"/>
<path d="M147.591 66.2602C146.48 66.856 145.254 67.2051 143.996 67.2836C142.914 67.3485 141.836 67.0909 140.9 66.5434C139.983 65.9623 139.239 65.1455 138.745 64.1783C138.251 63.2111 138.027 62.1291 138.095 61.0454C138.195 59.9648 138.611 58.9375 139.289 58.0903C140.065 57.1213 141.045 56.3351 142.159 55.7876L142.873 55.4243C143.986 54.8271 145.217 54.4811 146.478 54.4106C147.568 54.3472 148.652 54.6067 149.595 55.1566C150.509 55.7373 151.252 56.552 151.746 57.5163C152.24 58.4806 152.467 59.5594 152.404 60.641C152.304 61.7176 151.888 62.7404 151.207 63.5805C150.417 64.5564 149.423 65.3482 148.296 65.9008L147.591 66.2602ZM147.129 63.7211C148.297 63.2151 149.281 62.363 149.95 61.2797C150.165 60.8407 150.275 60.3576 150.271 59.8688C150.268 59.3799 150.15 58.8986 149.928 58.4629C149.707 58.0271 149.387 57.649 148.994 57.3582C148.601 57.0675 148.145 56.8721 147.664 56.7875C146.417 56.6781 145.167 56.9549 144.083 57.5805L143.352 57.9516C142.183 58.4614 141.2 59.3212 140.54 60.4126C140.302 60.8485 140.179 61.3376 140.181 61.8341C140.183 62.3307 140.311 62.8186 140.553 63.2524C140.756 63.701 141.071 64.0904 141.466 64.3842C141.861 64.678 142.325 64.8665 142.813 64.9321C144.092 65.0191 145.366 64.7146 146.468 64.0591L147.129 63.7211Z" fill="black"/>
<path d="M156.309 76.934L155.141 72.6566L143.347 75.8773L142.7 73.5141L154.495 70.2914L153.337 66.0531L155.259 65.5297L158.23 76.4086L156.309 76.934Z" fill="black"/>
<path d="M150.031 83.4828L144.766 83.7836L144.625 81.3168L158.821 80.5062L159.131 85.9359C159.282 87.3026 158.916 88.6764 158.106 89.7875C157.723 90.2716 157.238 90.665 156.685 90.9392C156.132 91.2134 155.525 91.3617 154.907 91.3735C154.299 91.4408 153.683 91.3691 153.106 91.1637C152.53 90.9583 152.007 90.6247 151.578 90.1879C150.681 89.1365 150.192 87.7983 150.198 86.4164L150.031 83.4828ZM152.02 83.3695L152.188 86.3344C152.18 87.0602 152.442 87.7632 152.923 88.307C153.166 88.5322 153.456 88.7016 153.772 88.8035C154.088 88.9054 154.422 88.9372 154.751 88.8969C155.09 88.8938 155.425 88.8205 155.734 88.6817C156.044 88.5428 156.321 88.3415 156.549 88.0902C157 87.5376 157.214 86.8294 157.145 86.1195L156.973 83.0883L152.02 83.3695Z" fill="black"/>
<path d="M150.124 102.508L150.956 96.7289L146.626 96.1039L145.653 102.862L143.701 102.58L145.025 93.3773L159.1 95.4047L157.784 104.537L155.812 104.254L156.775 97.5648L152.89 97.0062L152.058 102.787L150.124 102.508Z" fill="black"/>
<path d="M151.338 117.831L152.833 113.655L141.323 109.532L142.149 107.225L153.66 111.348L155.143 107.211L157.018 107.883L153.213 118.502L151.338 117.831Z" fill="black"/>
<path d="M145.359 121.545L143.826 124.018C143.35 124.825 142.705 125.519 141.933 126.051C141.278 126.502 140.503 126.745 139.708 126.75C138.904 126.738 138.12 126.499 137.446 126.061C136.923 125.765 136.472 125.357 136.124 124.866C135.777 124.376 135.542 123.815 135.436 123.223C135.255 121.895 135.575 120.547 136.333 119.442L139.2 114.819L151.284 122.311L149.982 124.413L145.359 121.545ZM143.666 120.495L139.575 117.959L138.045 120.424C137.841 120.713 137.696 121.04 137.619 121.385C137.542 121.73 137.534 122.087 137.595 122.436C137.671 122.759 137.813 123.063 138.013 123.329C138.213 123.594 138.465 123.815 138.755 123.977C139.015 124.156 139.31 124.277 139.621 124.331C139.932 124.385 140.251 124.371 140.556 124.289C141.211 124.072 141.762 123.619 142.101 123.018L143.666 120.495Z" fill="black"/>
<path d="M85.6777 145.67L88.1367 145.575L88.6211 157.791L94.876 157.543L94.3916 145.327L96.8506 145.229L97.4131 159.436L86.2402 159.879L85.6777 145.67Z" fill="black"/>
<path d="M71.0647 149.92C71.2819 148.678 71.7653 147.497 72.4816 146.459C73.0978 145.568 73.9658 144.879 74.9748 144.483C75.998 144.12 77.1002 144.038 78.1657 144.248C79.2311 144.457 80.2207 144.949 81.0305 145.672C81.8187 146.418 82.3705 147.379 82.6174 148.436C82.9001 149.645 82.9131 150.901 82.6555 152.116L82.5012 152.903C82.2826 154.147 81.7939 155.329 81.0695 156.364C80.4469 157.26 79.5735 157.952 78.5588 158.354C77.5372 158.715 76.4375 158.796 75.3741 158.589C74.3106 158.381 73.322 157.893 72.5109 157.174C71.7249 156.431 71.1774 155.471 70.9377 154.416C70.6588 153.193 70.6502 151.923 70.9123 150.696L71.0647 149.92ZM73.3459 151.124C73.0221 152.355 73.0845 153.656 73.5246 154.85C73.7368 155.29 74.0485 155.675 74.4351 155.975C74.8218 156.274 75.2727 156.479 75.7523 156.573C76.2319 156.668 76.7269 156.65 77.1982 156.52C77.6696 156.391 78.1043 156.153 78.468 155.827C79.3252 154.915 79.8804 153.761 80.0578 152.522L80.216 151.717C80.5377 150.483 80.4688 149.18 80.0188 147.987C79.823 147.531 79.5149 147.131 79.1231 146.826C78.7314 146.521 78.2688 146.321 77.7785 146.243C77.2999 146.125 76.7993 146.132 76.3238 146.261C75.8484 146.391 75.4137 146.639 75.0607 146.983C74.2014 147.934 73.6532 149.125 73.4894 150.397L73.3459 151.124Z" fill="black"/>
<path d="M58.9935 142.506C59.2983 141.905 59.7188 141.37 60.2307 140.932C60.7426 140.493 61.336 140.16 61.9769 139.952C63.3421 139.586 64.7944 139.738 66.054 140.379C67.0252 140.79 67.8589 141.47 68.4573 142.338C69.0309 143.199 69.3392 144.21 69.3441 145.245C69.3479 146.433 69.0958 147.608 68.6048 148.69L68.0618 149.901C67.5868 151.025 66.8703 152.03 65.9632 152.846C65.1708 153.558 64.1846 154.017 63.1302 154.166C62.0535 154.303 60.9602 154.13 59.9788 153.666C58.6941 153.163 57.6456 152.196 57.0413 150.955C56.5122 149.686 56.494 148.261 56.9905 146.979L59.2376 147.985C58.9311 148.745 58.9 149.589 59.1497 150.37C59.4855 151.057 60.0747 151.587 60.7933 151.848C61.2195 152.065 61.6932 152.173 62.1715 152.162C62.6499 152.151 63.1179 152.021 63.5335 151.784C64.5442 151.105 65.3194 150.129 65.7523 148.991L66.2669 147.84C66.8395 146.751 67.0777 145.516 66.9515 144.291C66.8718 143.824 66.6723 143.386 66.3724 143.019C66.0725 142.652 65.6825 142.369 65.2405 142.198C64.5481 141.823 63.7415 141.717 62.9759 141.901C62.2235 142.213 61.6077 142.784 61.2396 143.51L58.9935 142.506Z" fill="black"/>
<path d="M48.2219 146.811L51.8557 135.748L41.8372 141.678L39.3489 139.676L48.259 128.596L50.177 130.139L47.2395 133.791L43.1204 138.524L53.259 132.616L54.637 133.725L51.0413 144.881L54.7738 139.85L57.7113 136.198L59.6293 137.741L50.7181 148.819L48.2219 146.811Z" fill="black"/>
<path d="M34.8837 121.793C35.8846 121.027 37.0392 120.487 38.2685 120.209C39.3265 119.969 40.4321 120.051 41.4433 120.444C42.4416 120.87 43.3069 121.557 43.9487 122.433C44.5905 123.308 44.9853 124.34 45.0917 125.42C45.1653 126.504 44.9195 127.585 44.3847 128.53C43.7734 129.61 42.9319 130.543 41.9199 131.262L41.2744 131.737C40.27 132.503 39.1101 133.04 37.876 133.311C36.811 133.548 35.6996 133.465 34.6817 133.073C33.674 132.665 32.805 131.977 32.1787 131.088C31.5206 130.224 31.1226 129.19 31.0313 128.108C30.9576 127.029 31.205 125.952 31.7422 125.014C32.3669 123.925 33.2214 122.985 34.2462 122.26L34.8837 121.793ZM35.746 124.225C34.6726 124.911 33.8365 125.91 33.3515 127.088C33.2099 127.556 33.1789 128.05 33.2609 128.532C33.343 129.013 33.5358 129.469 33.8243 129.864C34.1127 130.258 34.4889 130.58 34.9231 130.804C35.3573 131.028 35.8376 131.148 36.3261 131.155C37.5746 131.064 38.7647 130.591 39.7343 129.799L40.3963 129.315C41.4692 128.626 42.3017 127.62 42.7791 126.438C42.9441 125.97 42.9878 125.467 42.9064 124.978C42.8249 124.488 42.6209 124.027 42.3133 123.637C42.0404 123.227 41.6678 122.892 41.2303 122.666C40.7928 122.439 40.3049 122.327 39.8123 122.34C38.5358 122.458 37.3258 122.963 36.3446 123.787L35.746 124.225Z" fill="black"/>
<path d="M24.5664 112.674L26.4082 116.707L37.5302 111.627L38.5488 113.858L27.4268 118.938L29.2529 122.936L27.4404 123.762L22.7549 113.502L24.5664 112.674Z" fill="black"/>
<path d="M29.7033 105.188L34.8527 104.049L35.3859 106.463L21.5022 109.53L20.3283 104.219C19.9606 102.895 20.1017 101.481 20.7239 100.256C21.0246 99.7168 21.4411 99.2507 21.9434 98.8914C22.4458 98.5321 23.0214 98.2885 23.6291 98.1782C24.2187 98.0143 24.8378 97.9864 25.4397 98.0967C26.0416 98.207 26.6106 98.4526 27.1037 98.8149C28.1572 99.7099 28.8544 100.953 29.0686 102.319L29.7033 105.188ZM27.758 105.618L27.1174 102.719C27.0103 102.001 26.6395 101.349 26.0774 100.889C25.8013 100.705 25.4882 100.583 25.16 100.533C24.8318 100.482 24.4966 100.505 24.178 100.598C23.8438 100.656 23.5252 100.782 23.242 100.968C22.9589 101.155 22.7173 101.398 22.5324 101.682C22.1762 102.299 22.078 103.032 22.259 103.721L22.9143 106.688L27.758 105.618Z" fill="black"/>
<path d="M26.5938 86.4008L26.6885 92.2406L31.0625 92.1703L30.9521 85.3441L32.9248 85.3109L33.0752 94.6078L18.8584 94.8383L18.709 85.6117L20.7012 85.5785L20.8105 92.3344L24.7354 92.2719L24.6406 86.432L26.5938 86.4008Z" fill="black"/>
<path d="M22.9298 71.5101L22.1262 75.8695L34.1506 78.0844L33.7062 80.4945L21.6817 78.2797L20.8857 82.6L18.9268 82.2406L20.9708 71.1469L22.9298 71.5101Z" fill="black"/>
<path d="M28.2209 66.9105L29.3362 64.223C29.6754 63.35 30.2009 62.5615 30.8762 61.9125C31.4499 61.3609 32.1764 60.9947 32.9611 60.8617C33.7563 60.7468 34.5677 60.8564 35.3039 61.1781C35.8674 61.3867 36.3781 61.7168 36.7998 62.1447C37.2215 62.5727 37.544 63.0882 37.7443 63.6547C38.1369 64.9371 38.0384 66.3197 37.468 67.5336L35.384 72.557L22.2502 67.1078L23.1975 64.8266L28.2209 66.9105ZM30.0618 67.6742L34.5081 69.5179L35.6194 66.8402C35.7747 66.5218 35.8653 66.1757 35.8861 65.822C35.9069 65.4684 35.8574 65.1141 35.7405 64.7797C35.6136 64.4731 35.4243 64.1963 35.1845 63.9669C34.9447 63.7376 34.6598 63.5608 34.3479 63.4477C34.0625 63.3124 33.7513 63.2406 33.4355 63.2373C33.1197 63.2339 32.807 63.299 32.5188 63.4281C31.9075 63.7483 31.4373 64.2844 31.1995 64.9321L30.0618 67.6742Z" fill="black"/>
</svg>
