<svg width="96" height="95" viewBox="0 0 96 95" fill="none" xmlns="http://www.w3.org/2000/svg">
<path d="M48 95C74.2335 95 95.5 73.7335 95.5 47.5C95.5 21.2665 74.2335 0 48 0C21.7665 0 0.5 21.2665 0.5 47.5C0.5 73.7335 21.7665 95 48 95Z" fill="black"/>
<path d="M53.9529 17.9795L52.6629 17.8249L53.4313 11.4173L50.1513 11.0236L49.3828 17.4311L48.0933 17.2765L48.987 9.82574L54.8461 10.5277L53.9529 17.9795Z" fill="white"/>
<path d="M61.9134 17.0044C61.6953 17.6331 61.3434 18.207 60.8821 18.6867C60.4851 19.0989 59.9745 19.3838 59.4152 19.5051C58.8513 19.6068 58.2705 19.5552 57.7333 19.3557C57.1961 19.1563 56.7223 18.8163 56.3614 18.3712C56.0141 17.9155 55.8084 17.3678 55.7697 16.7961C55.7249 16.1426 55.8248 15.4872 56.0625 14.8768L56.2094 14.4799C56.4291 13.8504 56.7839 13.2765 57.2489 12.7986C57.6491 12.3846 58.1629 12.0984 58.7256 11.976C59.288 11.8621 59.8714 11.9133 60.4053 12.1234C60.946 12.3131 61.4215 12.6528 61.7763 13.1027C62.122 13.5568 62.3258 14.103 62.3618 14.6727C62.403 15.334 62.2996 15.9964 62.0587 16.6136L61.9134 17.0044ZM60.8274 16.1838C61.1005 15.5699 61.1784 14.887 61.0506 14.2273C60.9772 13.9801 60.8473 13.7533 60.6713 13.5649C60.4952 13.3765 60.2778 13.2316 60.0361 13.1416C59.7944 13.0516 59.5351 13.0191 59.2787 13.0465C59.0223 13.0739 58.7758 13.1606 58.5586 13.2996C58.0348 13.7015 57.6477 14.2551 57.45 14.885L57.299 15.2912C57.0268 15.9069 56.9521 16.5918 57.0851 17.2518C57.1572 17.5006 57.2862 17.7293 57.462 17.9196C57.6378 18.1099 57.8555 18.2567 58.0978 18.3483C58.3402 18.4399 58.6005 18.4739 58.8583 18.4474C59.116 18.421 59.364 18.3349 59.5827 18.196C60.1107 17.773 60.4973 17.1991 60.6908 16.5508L60.8274 16.1838Z" fill="white"/>
<path d="M67.5861 21.8987C67.3763 22.186 67.112 22.4291 66.8082 22.6141C66.5044 22.7991 66.1671 22.9224 65.8156 22.9769C65.0735 23.051 64.3301 22.8484 63.7282 22.4079C63.2573 22.1116 62.8805 21.6872 62.6422 21.1843C62.4165 20.687 62.3414 20.1344 62.4262 19.5948C62.5254 18.9753 62.7565 18.3844 63.104 17.862L63.4895 17.2765C63.8321 16.7318 64.2905 16.2693 64.8321 15.922C65.3052 15.6181 65.858 15.4617 66.4202 15.4726C66.9925 15.4936 67.547 15.677 68.0189 16.0014C68.6455 16.3721 69.1099 16.9649 69.3198 17.662C69.488 18.3683 69.3764 19.1122 69.0085 19.7381L67.9241 19.0237C68.148 18.6539 68.2357 18.2175 68.172 17.7898C68.0552 17.4034 67.7933 17.0772 67.4412 16.8796C67.2376 16.73 66.9999 16.6334 66.7497 16.5987C66.4994 16.5639 66.2444 16.5921 66.0078 16.6807C65.4242 16.9488 64.9379 17.391 64.6157 17.9465L64.2497 18.5032C63.8589 19.0222 63.6301 19.6451 63.5921 20.2937C63.594 20.5439 63.6608 20.7892 63.7859 21.0059C63.9111 21.2225 64.0902 21.403 64.3059 21.5297C64.635 21.7833 65.0461 21.9066 65.4604 21.8761C65.8787 21.7776 66.2479 21.5326 66.5011 21.1854L67.5861 21.8987Z" fill="white"/>
<path d="M73.5442 20.5462L70.7234 26.0065L76.4408 23.7562L77.5701 25.0076L71.998 30.0349L71.128 29.0711L72.9649 27.4135L75.5079 25.2921L69.7297 27.5207L69.1045 26.828L71.9135 21.3163L69.5468 23.6243L67.7098 25.2818L66.8398 24.317L72.4119 19.2907L73.5442 20.5462Z" fill="white"/>
<path d="M78.3953 34.7097C77.8091 35.0241 77.1619 35.2083 76.498 35.2498C75.9268 35.284 75.3582 35.1481 74.8642 34.8591C74.3801 34.5524 73.9872 34.1213 73.7267 33.6109C73.4663 33.1004 73.3477 32.5293 73.3834 31.9574C73.4366 31.3871 73.6558 30.8449 74.0138 30.3978C74.4233 29.8863 74.9405 29.4714 75.5286 29.1824L75.9053 28.9907C76.4929 28.6755 77.1424 28.4929 77.8082 28.4557C78.3832 28.4222 78.9553 28.5592 79.4529 28.8495C79.9356 29.156 80.3277 29.5859 80.5884 30.0949C80.8491 30.6038 80.969 31.1732 80.9357 31.744C80.8829 32.3122 80.663 32.852 80.3038 33.2954C79.8868 33.8105 79.3625 34.2284 78.7674 34.52L78.3953 34.7097ZM78.1515 33.3696C78.7679 33.1025 79.2876 32.6528 79.6405 32.0811C79.754 31.8494 79.812 31.5944 79.81 31.3364C79.8081 31.0784 79.7461 30.8244 79.6291 30.5944C79.5121 30.3644 79.3432 30.1649 79.1357 30.0114C78.9283 29.8579 78.688 29.7548 78.4339 29.7102C77.7759 29.6524 77.116 29.7986 76.5439 30.1287L76.1584 30.3246C75.5412 30.5936 75.0226 31.0474 74.674 31.6234C74.5485 31.8535 74.4833 32.1116 74.4845 32.3737C74.4856 32.6357 74.5531 32.8933 74.6807 33.1222C74.7882 33.3589 74.9541 33.5645 75.1628 33.7195C75.3715 33.8746 75.6162 33.9741 75.8739 34.0087C76.5486 34.0546 77.2214 33.8939 77.8025 33.5479L78.1515 33.3696Z" fill="white"/>
<path d="M82.9962 40.343L82.3797 38.0855L76.1552 39.7854L75.814 38.5381L82.0391 36.8372L81.4278 34.6004L82.4421 34.3241L84.0105 40.0657L82.9962 40.343Z" fill="white"/>
<path d="M79.6831 43.7994L76.9041 43.9581L76.8298 42.6562L84.3223 42.2284L84.4857 45.0941C84.5654 45.8154 84.3725 46.5404 83.945 47.1268C83.7429 47.3823 83.4866 47.5899 83.1946 47.7346C82.9027 47.8794 82.5823 47.9576 82.2566 47.9638C81.9354 47.9994 81.6104 47.9615 81.3061 47.8531C81.0017 47.7447 80.726 47.5686 80.4996 47.3381C80.0263 46.7832 79.7679 46.0769 79.7713 45.3476L79.6831 43.7994ZM80.7325 43.7396L80.8217 45.3043C80.8174 45.6874 80.9555 46.0585 81.2093 46.3455C81.3378 46.4643 81.4907 46.5537 81.6573 46.6075C81.824 46.6613 82.0003 46.6781 82.1741 46.6568C82.3531 46.6551 82.5298 46.6165 82.6931 46.5432C82.8564 46.4699 83.0027 46.3637 83.123 46.2311C83.3609 45.9394 83.474 45.5656 83.4379 45.191L83.3466 43.5911L80.7325 43.7396Z" fill="white"/>
<path d="M79.7321 53.8406L80.1713 50.7904L77.8859 50.4605L77.3726 54.0271L76.3423 53.8787L77.0412 49.0215L84.4692 50.0915L83.775 54.9116L82.7344 54.7621L83.2426 51.2316L81.1918 50.9368L80.7526 53.988L79.7321 53.8406Z" fill="white"/>
<path d="M80.3729 61.9273L81.162 59.7234L75.0874 57.5474L75.5234 56.33L81.5985 58.506L82.3809 56.3228L83.3705 56.6774L81.3625 62.2819L80.3729 61.9273Z" fill="white"/>
<path d="M77.2169 63.8879L76.4078 65.1929C76.1569 65.6191 75.816 65.9853 75.4089 66.266C75.0631 66.5038 74.654 66.6323 74.2343 66.635C73.8101 66.6283 73.3964 66.5021 73.0406 66.2711C72.7646 66.1147 72.5265 65.8994 72.3432 65.6405C72.1599 65.3816 72.0358 65.0856 71.9799 64.7733C71.8845 64.0724 72.0533 63.361 72.4535 62.7776L73.9663 60.3377L80.3439 64.2919L79.6569 65.4011L77.2169 63.8879ZM76.3238 63.3333L74.1642 61.9953L73.357 63.2962C73.2493 63.4487 73.1729 63.6211 73.1321 63.8033C73.0913 63.9855 73.087 64.1741 73.1195 64.3579C73.1594 64.5286 73.2345 64.6891 73.3399 64.8291C73.4453 64.9692 73.5788 65.0857 73.7318 65.1713C73.8688 65.2659 74.0248 65.3297 74.1889 65.3581C74.353 65.3866 74.5213 65.3791 74.6822 65.3362C75.0278 65.2214 75.3184 64.9822 75.4976 64.6651L76.3238 63.3333Z" fill="white"/>
<path d="M45.7188 76.6205L47.0165 76.57L47.2722 83.0178L50.5734 82.8869L50.3177 76.4391L51.6155 76.3876L51.9124 83.8857L46.0156 84.1197L45.7188 76.6205Z" fill="white"/>
<path d="M38.0063 78.8636C38.121 78.208 38.3761 77.5849 38.7542 77.037C39.0794 76.5663 39.5375 76.2031 40.07 75.9939C40.61 75.8021 41.1917 75.7592 41.7541 75.8697C42.3164 75.9801 42.8387 76.2399 43.2661 76.6216C43.6821 77.0153 43.9733 77.5225 44.1036 78.0802C44.2528 78.7182 44.2597 79.3813 44.1237 80.0222L44.0423 80.4376C43.9269 81.0944 43.669 81.7179 43.2867 82.2643C42.9581 82.7373 42.4971 83.1027 41.9616 83.3147C41.4224 83.5052 40.842 83.5479 40.2807 83.4384C39.7194 83.329 39.1977 83.0712 38.7696 82.692C38.3548 82.2998 38.0658 81.7932 37.9393 81.2365C37.7921 80.5907 37.7876 79.9206 37.9259 79.2728L38.0063 78.8636ZM39.2103 79.4986C39.0394 80.1484 39.0723 80.835 39.3046 81.4654C39.4166 81.6979 39.5811 81.9011 39.7852 82.0589C39.9893 82.2168 40.2273 82.325 40.4804 82.375C40.7335 82.425 40.9947 82.4154 41.2435 82.347C41.4922 82.2786 41.7217 82.1532 41.9137 81.9808C42.3661 81.4996 42.6591 80.8906 42.7527 80.2367L42.8362 79.812C43.006 79.1608 42.9696 78.4729 42.7321 77.8432C42.6288 77.6024 42.4662 77.3917 42.2594 77.2307C42.0527 77.0697 41.8085 76.9638 41.5498 76.9226C41.2972 76.8607 41.0329 76.864 40.782 76.9324C40.5311 77.0007 40.3016 77.1318 40.1154 77.3133C39.6618 77.8154 39.3725 78.4441 39.2861 79.1152L39.2103 79.4986Z" fill="white"/>
<path d="M31.6354 74.9506C31.7963 74.6334 32.0182 74.351 32.2883 74.1196C32.5585 73.8883 32.8717 73.7125 33.2099 73.6023C33.9305 73.4093 34.697 73.4897 35.3618 73.8281C35.8743 74.045 36.3143 74.4037 36.6302 74.862C36.9329 75.3164 37.0956 75.8498 37.0982 76.3958C37.1002 77.0229 36.9672 77.6431 36.708 78.2142L36.4214 78.8533C36.1707 79.4464 35.7926 79.9771 35.3138 80.4078C34.8956 80.7833 34.3752 81.0258 33.8186 81.1046C33.2504 81.1768 32.6734 81.0853 32.1554 80.8407C31.4774 80.5752 30.924 80.0645 30.6051 79.4099C30.3258 78.74 30.3162 77.988 30.5783 77.3112L31.7643 77.8421C31.6025 78.2434 31.5861 78.6886 31.7179 79.1007C31.8951 79.4633 32.2061 79.743 32.5853 79.881C32.8103 79.9957 33.0603 80.0527 33.3127 80.0468C33.5652 80.0408 33.8122 79.9722 34.0315 79.847C34.565 79.4886 34.9741 78.9736 35.2026 78.3729L35.4742 77.7658C35.7764 77.1906 35.9021 76.5391 35.8355 75.8928C35.7934 75.6462 35.6881 75.4148 35.5298 75.2211C35.3715 75.0274 35.1657 74.8781 34.9325 74.7878C34.567 74.59 34.1413 74.5342 33.7372 74.6311C33.3402 74.7958 33.0151 75.0971 32.8208 75.4805L31.6354 74.9506Z" fill="white"/>
<path d="M25.9503 77.2226L27.8682 71.384L22.5806 74.5136L21.2673 73.457L25.9699 67.6092L26.9822 68.4235L25.4318 70.3512L23.2578 72.8488L28.6088 69.7306L29.3361 70.3161L27.4383 76.2041L29.4082 73.5487L30.9586 71.6211L31.9708 72.4355L27.2677 78.2822L25.9503 77.2226Z" fill="white"/>
<path d="M18.9109 64.0189C19.4391 63.6147 20.0485 63.3295 20.6973 63.1829C21.2556 63.0561 21.8392 63.0992 22.3729 63.3066C22.8997 63.5317 23.3564 63.8942 23.6952 64.3562C24.0339 64.8183 24.2423 65.3629 24.2984 65.9331C24.3373 66.5048 24.2075 67.0754 23.9253 67.5741C23.6026 68.1444 23.1585 68.6368 22.6244 69.0162L22.2837 69.2667C21.7536 69.6712 21.1414 69.9548 20.4901 70.0976C19.928 70.2229 19.3414 70.1791 18.8042 69.9718C18.2723 69.7569 17.8137 69.3933 17.4832 68.9245C17.1358 68.4684 16.9258 67.9228 16.8776 67.3515C16.8387 66.7821 16.9692 66.214 17.2528 65.7187C17.5825 65.144 18.0334 64.648 18.5743 64.2652L18.9109 64.0189ZM19.366 65.3022C18.7994 65.6641 18.3582 66.1918 18.1022 66.8134C18.0274 67.0602 18.0111 67.321 18.0544 67.5752C18.0977 67.8294 18.1995 68.07 18.3517 68.2782C18.504 68.4863 18.7025 68.6562 18.9316 68.7744C19.1608 68.8927 19.4143 68.9561 19.6721 68.9596C20.331 68.9118 20.9591 68.6619 21.4709 68.2442L21.8203 67.9885C22.3866 67.6247 22.826 67.0942 23.0779 66.4701C23.165 66.223 23.1881 65.9579 23.1451 65.6994C23.1021 65.441 22.9944 65.1976 22.8321 64.9919C22.6881 64.7754 22.4914 64.599 22.2605 64.4792C22.0296 64.3595 21.7721 64.3004 21.5121 64.3075C20.8384 64.3694 20.1997 64.636 19.6819 65.0713L19.366 65.3022Z" fill="white"/>
<path d="M13.4656 59.206L14.4377 61.3347L20.3076 58.6535L20.8452 59.8307L14.9752 62.5118L15.9391 64.6219L14.9825 65.0579L12.5095 59.643L13.4656 59.206Z" fill="white"/>
<path d="M16.1766 55.2549L18.8944 54.6539L19.1758 55.9279L11.8482 57.5463L11.2287 54.7435C11.0346 54.0448 11.1091 53.2986 11.4374 52.652C11.5962 52.3673 11.816 52.1213 12.0811 51.9317C12.3462 51.742 12.6501 51.6135 12.9708 51.5552C13.282 51.4687 13.6087 51.454 13.9264 51.5122C14.244 51.5704 14.5443 51.7 14.8046 51.8913C15.3606 52.3636 15.7286 53.0198 15.8416 53.7406L16.1766 55.2549ZM15.1499 55.4816L14.8118 53.9519C14.7553 53.5729 14.5596 53.2285 14.2629 52.986C14.1172 52.8886 13.952 52.8244 13.7788 52.7979C13.6055 52.7714 13.4286 52.7831 13.2604 52.8324C13.0841 52.8628 12.9159 52.9294 12.7665 53.0278C12.617 53.1262 12.4895 53.2545 12.392 53.4045C12.204 53.7302 12.1521 54.117 12.2477 54.4807L12.5935 56.0465L15.1499 55.4816Z" fill="white"/>
<path d="M14.5356 45.3394L14.5857 48.4216L16.8942 48.3844L16.8359 44.7817L17.877 44.7642L17.9564 49.6709L10.4531 49.7925L10.3743 44.923L11.4257 44.9054L11.4834 48.471L13.5548 48.438L13.5049 45.3559L14.5356 45.3394Z" fill="white"/>
<path d="M12.6019 37.4805L12.1778 39.7813L18.524 40.9502L18.2895 42.2222L11.9432 41.0533L11.5232 43.3334L10.4893 43.1438L11.568 37.2888L12.6019 37.4805Z" fill="white"/>
<path d="M15.3943 35.0529L15.9829 33.6345C16.162 33.1738 16.4394 32.7576 16.7957 32.4151C17.0986 32.1239 17.482 31.9307 17.8961 31.8605C18.3158 31.7999 18.7441 31.8577 19.1326 32.0275C19.43 32.1376 19.6995 32.3118 19.9221 32.5376C20.1447 32.7635 20.3149 33.0356 20.4206 33.3346C20.6278 34.0114 20.5758 34.7411 20.2747 35.3818L19.1749 38.033L12.2432 35.157L12.7431 33.953L15.3943 35.0529ZM16.3659 35.456L18.7126 36.4291L19.2991 35.0158C19.381 34.8477 19.4289 34.6651 19.4398 34.4784C19.4508 34.2918 19.4247 34.1048 19.363 33.9283C19.2961 33.7665 19.1961 33.6204 19.0695 33.4994C18.943 33.3783 18.7926 33.285 18.628 33.2253C18.4774 33.1539 18.3131 33.116 18.1465 33.1143C17.9798 33.1125 17.8147 33.1468 17.6626 33.215C17.34 33.3839 17.0918 33.6669 16.9663 34.0087L16.3659 35.456Z" fill="white"/>
</svg>
